<?xml version="1.0" encoding="UTF-8"?>
<svg version="1.1" xmlns="http://www.w3.org/2000/svg" width="24" height="24">
<path d="M0 0 C0.66 0 1.32 0 2 0 C2.33 0.99 2.66 1.98 3 3 C3.66 3.33 4.32 3.66 5 4 C5.33 3.01 5.66 2.02 6 1 C6.66 1 7.32 1 8 1 C7.67 2.32 7.34 3.64 7 5 C7.99 5 8.98 5 10 5 C10.66 5 11.32 5 12 5 C11.67 5.99 11.34 6.98 11 8 C10.34 8 9.68 8 9 8 C9.33 8.66 9.66 9.32 10 10 C10.99 10.33 11.98 10.66 13 11 C13 11.66 13 12.32 13 13 C12.01 13.33 11.02 13.66 10 14 C9.67 14.66 9.34 15.32 9 16 C9.99 16.33 10.98 16.66 12 17 C12 17.66 12 18.32 12 19 C10.68 18.67 9.36 18.34 8 18 C8 18.99 8 19.98 8 21 C8 21.66 8 22.32 8 23 C7.01 22.67 6.02 22.34 5 22 C5 21.34 5 20.68 5 20 C4.34 20.33 3.68 20.66 3 21 C2.67 21.99 2.34 22.98 2 24 C1.34 24 0.68 24 0 24 C-0.33 23.01 -0.66 22.02 -1 21 C-1.66 20.67 -2.32 20.34 -3 20 C-3.33 20.99 -3.66 21.98 -4 23 C-4.66 23 -5.32 23 -6 23 C-5.67 21.68 -5.34 20.36 -5 19 C-5.99 19 -6.98 19 -8 19 C-8.66 19 -9.32 19 -10 19 C-9.67 18.01 -9.34 17.02 -9 16 C-8.34 16 -7.68 16 -7 16 C-7.33 15.34 -7.66 14.68 -8 14 C-8.99 13.67 -9.98 13.34 -11 13 C-11 12.34 -11 11.68 -11 11 C-10.01 10.67 -9.02 10.34 -8 10 C-7.67 9.34 -7.34 8.68 -7 8 C-7.99 7.67 -8.98 7.34 -10 7 C-10 6.34 -10 5.68 -10 5 C-8.02 5.495 -8.02 5.495 -6 6 C-6 5.01 -6 4.02 -6 3 C-6 2.34 -6 1.68 -6 1 C-5.01 1.33 -4.02 1.66 -3 2 C-3 2.66 -3 3.32 -3 4 C-2.34 3.67 -1.68 3.34 -1 3 C-0.67 2.01 -0.34 1.02 0 0 Z M-1 5 C0.09786425 10.40787385 0.09786425 10.40787385 4 14 C5.32 14 6.64 14 8 14 C7.64412696 9.61645665 7.64412696 9.61645665 5.1875 6.125 C2.81711373 4.69510132 2.81711373 4.69510132 -1 5 Z M-5 8 C-4 10 -4 10 -4 10 Z M-6 10 C-5 14 -5 14 -5 14 Z M-5 14 C-4 16 -4 16 -4 16 Z M-1 18 C3 19 3 19 3 19 Z " fill="#0084DE" transform="translate(11,0)"/>
<path d="M0 0 C0.66 0 1.32 0 2 0 C1.67 1.32 1.34 2.64 1 4 C1.99 4 2.98 4 4 4 C4.66 4 5.32 4 6 4 C5.67 4.99 5.34 5.98 5 7 C4.34 7 3.68 7 3 7 C3.33 7.66 3.66 8.32 4 9 C4.99 9.33 5.98 9.66 7 10 C7 10.66 7 11.32 7 12 C6.01 12.33 5.02 12.66 4 13 C3.67 13.66 3.34 14.32 3 15 C3.99 15.33 4.98 15.66 6 16 C6 16.66 6 17.32 6 18 C4.68 17.67 3.36 17.34 2 17 C2 17.99 2 18.98 2 20 C2 20.66 2 21.32 2 22 C1.01 21.67 0.02 21.34 -1 21 C-0.06666667 14.2 -0.06666667 14.2 0.875 11.375 C1.29220412 8.68010351 1.29220412 8.68010351 -1.4375 6.1875 C-2.283125 5.465625 -3.12875 4.74375 -4 4 C-3.67 3.34 -3.34 2.68 -3 2 C-2.34 2.33 -1.68 2.66 -1 3 C-0.67 2.01 -0.34 1.02 0 0 Z " fill="#00B9F3" transform="translate(17,1)"/>
<path d="M0 0 C0.928125 0.2784375 0.928125 0.2784375 1.875 0.5625 C4.04160178 1.23686176 4.04160178 1.23686176 6 0 C5.88140625 0.60328125 5.7628125 1.2065625 5.640625 1.828125 C5.24755429 4.26516342 4.95307278 6.52992159 5 9 C6.792191 11.46172153 6.792191 11.46172153 9 13 C9 13.66 9 14.32 9 15 C8.34 15 7.68 15 7 15 C6.67 15.99 6.34 16.98 6 18 C5.34 18 4.68 18 4 18 C4.33 16.68 4.66 15.36 5 14 C4.01 14 3.02 14 2 14 C1.34 14 0.68 14 0 14 C0.33 13.01 0.66 12.02 1 11 C1.66 11 2.32 11 3 11 C2.67 10.34 2.34 9.68 2 9 C1.01 8.67 0.02 8.34 -1 8 C-1 7.34 -1 6.68 -1 6 C-0.01 5.67 0.98 5.34 2 5 C2.33 4.34 2.66 3.68 3 3 C2.01 2.67 1.02 2.34 0 2 C0 1.34 0 0.68 0 0 Z " fill="#006DD5" transform="translate(1,5)"/>
<path d="M0 0 C3.465 1.485 3.465 1.485 7 3 C6.42437172 6.33864404 5.40936384 7.69102632 3 10 C2.67 10.99 2.34 11.98 2 13 C1.34 13 0.68 13 0 13 C-0.38218767 11.34385343 -0.71395102 9.67542976 -1 8 C-0.67 7.67 -0.34 7.34 0 7 C0.04092937 4.66702567 0.04241723 2.33294775 0 0 Z " fill="#0099E7" transform="translate(11,11)"/>
<path d="M0 0 C0.66 0 1.32 0 2 0 C1.67 2.31 1.34 4.62 1 7 C-0.65 6.01 -2.3 5.02 -4 4 C-3.67 3.34 -3.34 2.68 -3 2 C-2.34 2.33 -1.68 2.66 -1 3 C-0.67 2.01 -0.34 1.02 0 0 Z " fill="#00A8EC" transform="translate(17,1)"/>
</svg>
