<?xml version="1.0" encoding="UTF-8"?>
<svg version="1.1" xmlns="http://www.w3.org/2000/svg" width="24" height="24">
<path d="M0 0 C0.66 0 1.32 0 2 0 C2.33 0.99 2.66 1.98 3 3 C3.66 3.33 4.32 3.66 5 4 C5.33 3.01 5.66 2.02 6 1 C6.66 1 7.32 1 8 1 C7.67 2.32 7.34 3.64 7 5 C7.99 5 8.98 5 10 5 C10.66 5 11.32 5 12 5 C11.67 5.99 11.34 6.98 11 8 C10.34 8 9.68 8 9 8 C9.33 8.66 9.66 9.32 10 10 C10.99 10.33 11.98 10.66 13 11 C13 11.66 13 12.32 13 13 C12.01 13.33 11.02 13.66 10 14 C9.67 14.66 9.34 15.32 9 16 C9.99 16.33 10.98 16.66 12 17 C12 17.66 12 18.32 12 19 C10.68 18.67 9.36 18.34 8 18 C8 18.99 8 19.98 8 21 C8 21.66 8 22.32 8 23 C7.01 22.67 6.02 22.34 5 22 C5 21.34 5 20.68 5 20 C4.34 20.33 3.68 20.66 3 21 C2.67 21.99 2.34 22.98 2 24 C1.34 24 0.68 24 0 24 C-0.33 23.01 -0.66 22.02 -1 21 C-1.66 20.67 -2.32 20.34 -3 20 C-3.33 20.99 -3.66 21.98 -4 23 C-4.66 23 -5.32 23 -6 23 C-5.67 21.68 -5.34 20.36 -5 19 C-5.99 19 -6.98 19 -8 19 C-8.66 19 -9.32 19 -10 19 C-9.67 18.01 -9.34 17.02 -9 16 C-8.34 16 -7.68 16 -7 16 C-7.33 15.34 -7.66 14.68 -8 14 C-8.99 13.67 -9.98 13.34 -11 13 C-11 12.34 -11 11.68 -11 11 C-10.01 10.67 -9.02 10.34 -8 10 C-7.67 9.34 -7.34 8.68 -7 8 C-7.99 7.67 -8.98 7.34 -10 7 C-10 6.34 -10 5.68 -10 5 C-8.02 5.495 -8.02 5.495 -6 6 C-6 5.01 -6 4.02 -6 3 C-6 2.34 -6 1.68 -6 1 C-5.01 1.33 -4.02 1.66 -3 2 C-3 2.66 -3 3.32 -3 4 C-2.34 3.67 -1.68 3.34 -1 3 C-0.67 2.01 -0.34 1.02 0 0 Z M-1 5 C0.09786425 10.40787385 0.09786425 10.40787385 4 14 C5.32 14 6.64 14 8 14 C7.64412696 9.61645665 7.64412696 9.61645665 5.1875 6.125 C2.81711373 4.69510132 2.81711373 4.69510132 -1 5 Z M-5 8 C-4 10 -4 10 -4 10 Z M-6 10 C-5 14 -5 14 -5 14 Z M-5 14 C-4 16 -4 16 -4 16 Z M-1 18 C3 19 3 19 3 19 Z " fill="#FDBE00" transform="translate(11,0)"/>
</svg>
